<?xml version="1.0" encoding="UTF-8"?>
<svg version="1.1" xmlns="http://www.w3.org/2000/svg" width="1536" height="1024">
<path d="M0 0 C506.88 0 1013.76 0 1536 0 C1536 337.92 1536 675.84 1536 1024 C1029.12 1024 522.24 1024 0 1024 C0 686.08 0 348.16 0 0 Z " fill="#424853" transform="translate(0,0)"/>
<path d="M0 0 C2.4375 1.09472656 2.4375 1.09472656 5 2.640625 C6.43980225 3.49636108 6.43980225 3.49636108 7.90869141 4.36938477 C8.92882324 4.98998779 9.94895508 5.61059082 11 6.25 C13.15296907 7.53628968 15.30662904 8.82142357 17.4609375 10.10546875 C18.54858398 10.75692871 19.63623047 11.40838867 20.75683594 12.07958984 C26.51893757 15.49156601 32.36643659 18.75558984 38.22265625 22.00292969 C39.02832031 22.45700195 39.83398438 22.91107422 40.6640625 23.37890625 C41.70747803 23.96007202 41.70747803 23.96007202 42.77197266 24.55297852 C50.58887087 29.62976525 50.58887087 29.62976525 51.559021 32.86313725 C51.7740511 35.14691315 51.79951323 37.36451414 51.76049805 39.65820312 C51.77385948 40.9493528 51.77385948 40.9493528 51.78749084 42.2665863 C51.80876266 45.1055838 51.78647377 47.94230855 51.76171875 50.78125 C51.76322134 52.75753003 51.76665176 54.73380945 51.77192688 56.71008301 C51.77625778 60.8495044 51.75942437 64.98814662 51.72729492 69.12744141 C51.68751381 74.43074145 51.69681376 79.73258044 51.72152996 85.03592682 C51.7357191 89.11610875 51.72562149 93.19594996 51.70801735 97.27610779 C51.70217123 99.23130988 51.70346446 101.18654688 51.71204185 103.14173889 C51.72004201 105.87587848 51.69577164 108.60788422 51.6628418 111.34179688 C51.67566696 112.55137306 51.67566696 112.55137306 51.68875122 113.78538513 C51.60421904 117.85588203 51.2098247 119.74152876 48.61091614 122.94297791 C46.13688976 124.89215078 43.78801227 126.45266546 41 127.91015625 C40.0416626 128.41861084 39.0833252 128.92706543 38.09594727 129.45092773 C37.07428467 129.98274658 36.05262207 130.51456543 35 131.0625 C32.82054632 132.21934383 30.64217895 133.37823631 28.46484375 134.5390625 C27.37413574 135.11946289 26.28342773 135.69986328 25.15966797 136.29785156 C20.58067737 138.76460496 16.06756036 141.33879609 11.5625 143.9375 C3.904997 148.34656494 -3.78474179 152.69275554 -11.5 157 C-19.20357148 161.30542092 -26.89716646 165.62681955 -34.5625 170 C-35.39539551 170.47268311 -36.22829102 170.94536621 -37.08642578 171.43237305 C-41.90329749 174.17927184 -46.66356022 177.00192887 -51.39453125 179.89453125 C-52.473396 180.54615234 -53.55226074 181.19777344 -54.66381836 181.86914062 C-56.75897186 183.13709637 -58.84498141 184.42032287 -60.92016602 185.72070312 C-67.92997601 189.94023497 -67.92997601 189.94023497 -72.63671875 190.203125 C-77.09098824 188.60972778 -80.93183042 186.43289142 -84.9375 183.9375 C-85.71673828 183.46505859 -86.49597656 182.99261719 -87.29882812 182.50585938 C-89.20588741 181.34758411 -91.10568539 180.17896117 -93 179 C-91.78416075 175.35248225 -90.99712003 175.14744257 -87.71484375 173.35546875 C-86.80420166 172.85080078 -85.89355957 172.34613281 -84.95532227 171.82617188 C-83.95944092 171.28541016 -82.96355957 170.74464844 -81.9375 170.1875 C-79.8193804 169.01600662 -77.70222161 167.84277467 -75.5859375 166.66796875 C-74.49249023 166.06259277 -73.39904297 165.4572168 -72.27246094 164.83349609 C-67.1563633 161.96704628 -62.1127272 158.98043461 -57.0625 156 C-48.11865781 150.74592886 -39.07032776 145.72719282 -29.92993164 140.82421875 C-23.06752018 137.13832155 -16.2692239 133.35414177 -9.5 129.5 C-1.29423554 124.83389325 6.95434156 120.25449764 15.25 115.75 C16.28060547 115.18861328 17.31121094 114.62722656 18.37304688 114.04882812 C19.80487305 113.27442383 19.80487305 113.27442383 21.265625 112.484375 C22.10899414 112.02772461 22.95236328 111.57107422 23.82128906 111.10058594 C26 110 26 110 29 109 C28.67 86.89 28.34 64.78 28 42 C22.06 38.7 16.12 35.4 10 32 C3.6875 28.125 3.6875 28.125 0.65625 26.2265625 C-7.41596116 21.24493568 -15.74666883 16.67271281 -24 12 C-20.81056747 8.59846837 -17.15425609 6.58848519 -13.125 4.3125 C-12.41730469 3.89677734 -11.70960938 3.48105469 -10.98046875 3.05273438 C-10.28824219 2.66021484 -9.59601563 2.26769531 -8.8828125 1.86328125 C-7.94526123 1.32634644 -7.94526123 1.32634644 -6.98876953 0.77856445 C-4.4484396 -0.21592513 -2.71428009 -0.29731759 0 0 Z " fill="#A8E0F0" transform="translate(468,453)"/>
<path d="M0 0 C1.90661568 0.90783004 3.77866774 1.88998106 5.62109375 2.921875 C6.7097876 3.52837891 7.79848145 4.13488281 8.92016602 4.75976562 C10.09280364 5.42283594 11.26524345 6.0862562 12.4375 6.75 C13.65731187 7.43452791 14.87728464 8.11876916 16.09741211 8.80273438 C24.35927668 13.44756889 32.55003769 18.20831205 40.68774414 23.06762695 C45.71933694 26.07129492 50.77355066 29.02952587 55.86328125 31.93359375 C56.44701004 32.26730988 57.03073883 32.601026 57.63215637 32.94485474 C60.47530107 34.56986719 63.3210921 36.18959737 66.17211914 37.80078125 C67.72274048 38.68636719 67.72274048 38.68636719 69.3046875 39.58984375 C70.21202637 40.10409912 71.11936523 40.61835449 72.05419922 41.14819336 C73.02631348 41.75928955 73.99842773 42.37038574 75 43 C75.69526794 43.37719177 76.39053589 43.75438354 77.10687256 44.14300537 C80.40595558 46.16707869 82.61638502 47.63576995 83.69284058 51.46391296 C83.92693388 54.51513687 83.90005958 57.46553968 83.78125 60.5234375 C83.76993042 61.62475006 83.75861084 62.72606262 83.74694824 63.86074829 C83.7022777 67.36729237 83.60192344 70.8696989 83.5 74.375 C83.45986136 76.75645123 83.42336128 79.13796676 83.390625 81.51953125 C83.30257358 87.3477582 83.16882893 93.17358355 83 99 C60.89040888 111.6893822 60.89040888 111.6893822 51.125 116.9375 C42.68640774 121.50812051 34.31517121 126.18675584 25.97070312 130.92675781 C18.9639632 134.90259844 11.92613621 138.82011043 4.87631226 142.71887207 C-3.30408966 147.2433455 -11.45889563 151.7941205 -19.5 156.5625 C-20.1705542 156.95824219 -20.8411084 157.35398437 -21.53198242 157.76171875 C-24.45121321 159.48549028 -27.36226839 161.21953031 -30.26171875 162.9765625 C-31.22722656 163.54117188 -32.19273437 164.10578125 -33.1875 164.6875 C-34.38439453 165.40486328 -34.38439453 165.40486328 -35.60546875 166.13671875 C-38.93573502 167.33735308 -40.59088989 167.00677201 -44 166 C-47.06322897 164.47723669 -49.96389388 162.73103741 -52.875 160.9375 C-53.65875 160.46505859 -54.4425 159.99261719 -55.25 159.50585938 C-57.17198433 158.34563713 -59.08822535 157.17694224 -61 156 C-59.69493186 152.08479557 -58.31813771 151.78473877 -54.734375 149.84765625 C-53.62755371 149.24236084 -52.52073242 148.63706543 -51.38037109 148.01342773 C-50.17024777 147.3631178 -48.96012406 146.71280857 -47.75 146.0625 C-45.88332231 145.04562907 -44.01853882 144.02534024 -42.15377808 143.00495911 C-40.89682227 142.31750434 -39.63927014 141.63113883 -38.38113403 140.94584656 C-33.00391107 138.01503846 -27.68111049 134.99515268 -22.375 131.9375 C-13.76294512 126.99061034 -5.10683718 122.12583021 3.56298828 117.28100586 C10.5532116 113.37363099 17.53109355 109.44525463 24.5 105.5 C27.32323631 103.90416104 30.1467041 102.30873226 32.97021484 100.71337891 C35.70068581 99.16926567 38.42962779 97.62247735 41.15835571 96.07528687 C44.0410865 94.44251093 46.92707775 92.81551347 49.8125 91.1875 C50.89917969 90.57003906 51.98585938 89.95257812 53.10546875 89.31640625 C54.60980469 88.46949219 54.60980469 88.46949219 56.14453125 87.60546875 C57.48028198 86.84979614 57.48028198 86.84979614 58.84301758 86.07885742 C61 85 61 85 63 85 C64.24599234 71.43848085 64.24599234 71.43848085 59.91796875 59.18359375 C57.1482646 57.52622058 54.37878451 56.23474146 51.38232422 55.04248047 C46.23212709 52.78880741 41.43532972 49.79066346 36.5625 47 C34.50290313 45.85129132 32.44171178 44.70543666 30.37890625 43.5625 C19.10997556 37.28702956 7.94977229 30.83031051 -3.17163086 24.2980957 C-5.09245168 23.16990798 -7.01394545 22.04287317 -8.93554688 20.91601562 C-12.29198281 18.9467434 -15.64823259 16.97721356 -19 15 C-19.95575928 14.46930908 -20.91151855 13.93861816 -21.89624023 13.3918457 C-22.59048096 12.93253662 -23.28472168 12.47322754 -24 12 C-24 11.34 -24 10.68 -24 10 C-21.11878897 7.8320144 -17.92913972 6.11974185 -14.8125 4.3125 C-13.94818359 3.78849609 -13.08386719 3.26449219 -12.19335938 2.72460938 C-11.35224609 2.23412109 -10.51113281 1.74363281 -9.64453125 1.23828125 C-8.87471924 0.78493408 -8.10490723 0.33158691 -7.31176758 -0.13549805 C-4.36009165 -1.23929829 -2.98575498 -0.95891407 0 0 Z " fill="#C5EAF5" transform="translate(398,454)"/>
<path d="M0 0 C3.25390625 1.7421875 3.25390625 1.7421875 6.5625 3.875 C7.65691406 4.57367188 8.75132812 5.27234375 9.87890625 5.9921875 C11.42384766 6.98605469 11.42384766 6.98605469 13 8 C13.95777344 8.53882813 14.91554688 9.07765625 15.90234375 9.6328125 C16.94068359 10.30957031 16.94068359 10.30957031 18 11 C18 11.66 18 12.32 18 13 C17.06607422 13.44085938 17.06607422 13.44085938 16.11328125 13.890625 C6.39268221 18.60857265 -2.90743737 24.02162412 -12.26074219 29.42089844 C-16.52073392 31.87665838 -20.79186078 34.31282028 -25.0625 36.75 C-26.81256106 37.74989314 -28.56255916 38.74989647 -30.3125 39.75 C-42.5625 46.75 -42.5625 46.75 -46.02758789 48.72998047 C-48.38625433 50.07777819 -50.74480493 51.42577832 -53.10327148 52.77392578 C-58.64816254 55.94328818 -64.19378358 59.11134656 -69.74247742 62.27404785 C-72.26441954 63.71163733 -74.78589686 65.15004097 -77.30734253 66.58850098 C-79.06715718 67.59201577 -80.82763485 68.59436757 -82.58813477 69.59667969 C-84.73831833 70.82353508 -86.87746796 72.06999408 -89.00341797 73.33837891 C-92 75 -92 75 -95.00048828 76.11083984 C-98.16901375 77.41618505 -99.85875911 78.30202498 -102 81 C-103.65035175 87.26135575 -102.93295441 93.98000719 -102.625 100.375 C-102.57481043 102.17826284 -102.52918801 103.98165896 -102.48828125 105.78515625 C-102.37835058 110.19340185 -102.20600758 114.59524109 -102 119 C-101.26571777 119.41958984 -101.26571777 119.41958984 -100.51660156 119.84765625 C-99.8150293 120.24855469 -99.11345703 120.64945312 -98.390625 121.0625 C-97.58778076 121.52124512 -96.78493652 121.97999023 -95.95776367 122.45263672 C-94.11409672 123.50620818 -92.27051273 124.55992483 -90.42700195 125.61376953 C-85.02485416 128.70159463 -79.62106356 131.78649667 -74.21484375 134.8671875 C-59.09042325 143.48918115 -44.01837044 152.19411483 -29 161 C-30.5741093 165.72232789 -34.54022813 166.92872392 -38.75 169.25 C-39.56210937 169.72179687 -40.37421875 170.19359375 -41.2109375 170.6796875 C-42.00242187 171.12054687 -42.79390625 171.56140625 -43.609375 172.015625 C-44.33092773 172.42071289 -45.05248047 172.82580078 -45.79589844 173.24316406 C-49.1682181 174.40113825 -51.64822475 173.59486725 -54.83911133 172.19067383 C-55.4142749 171.86607178 -55.98943848 171.54146973 -56.58203125 171.20703125 C-57.25379395 170.8315918 -57.92555664 170.45615234 -58.61767578 170.06933594 C-59.34196777 169.65458008 -60.06625977 169.23982422 -60.8125 168.8125 C-61.59093262 168.37325195 -62.36936523 167.93400391 -63.17138672 167.48144531 C-72.77763762 162.03671323 -82.29968048 156.44433048 -91.82421875 150.85839844 C-95.097559 148.94291058 -98.37611262 147.03663493 -101.65625 145.1328125 C-102.7395459 144.50342773 -103.8228418 143.87404297 -104.93896484 143.22558594 C-107.01144563 142.02180016 -109.08464987 140.81925877 -111.15869141 139.61816406 C-112.09890137 139.0712793 -113.03911133 138.52439453 -114.0078125 137.9609375 C-115.23975342 137.24623291 -115.23975342 137.24623291 -116.49658203 136.51708984 C-117.32270996 136.0164502 -118.14883789 135.51581055 -119 135 C-120.07580322 134.56236328 -121.15160645 134.12472656 -122.26000977 133.67382812 C-126.20142074 129.82758978 -125.76227575 126.6027923 -125.85932922 121.24783325 C-125.84581673 119.27277298 -125.84581673 119.27277298 -125.83203125 117.2578125 C-125.83861706 115.88783923 -125.84683587 114.51787292 -125.85661316 113.1479187 C-125.86996198 110.27773889 -125.86113521 107.40867683 -125.8371582 104.53857422 C-125.80861639 100.8701893 -125.83857983 97.2050244 -125.88579273 93.53692818 C-125.91507128 90.70732643 -125.91122902 87.87848617 -125.89777184 85.04879379 C-125.8945863 83.04248462 -125.9205259 81.03619716 -125.94697571 79.03005981 C-125.81102913 70.16834871 -125.81102913 70.16834871 -123.53329468 66.88710022 C-121.76552031 65.32396574 -120.05905632 64.14403102 -118 63 C-117.24074219 62.51942139 -116.48148437 62.03884277 -115.69921875 61.54370117 C-115.03535156 61.21345947 -114.37148438 60.88321777 -113.6875 60.54296875 C-112.93009521 60.15753906 -112.17269043 59.77210938 -111.39233398 59.375 C-110.20812866 58.7871875 -110.20812866 58.7871875 -109 58.1875 C-103.02501328 55.13516763 -97.1572046 52.00909291 -91.4375 48.5 C-86.17499647 45.27691975 -80.84794147 42.21816251 -75.4375 39.25 C-68.69206126 35.54349171 -62.04832514 31.69129634 -55.4375 27.75 C-46.29351707 22.29946582 -37.0434516 17.06272146 -27.72705078 11.9128418 C-21.13977204 8.25641873 -14.7552304 4.4339423 -8.55078125 0.16015625 C-5.15894835 -1.38253038 -3.54750909 -1.07595771 0 0 Z " fill="#FAF9F9" transform="translate(404,366)"/>
<path d="M0 0 C0.79019531 -0.01160156 1.58039063 -0.02320313 2.39453125 -0.03515625 C13.06635675 0.01724224 22.94909112 4.21580758 30.76953125 11.484375 C40.06740144 21.48950433 41.98383204 30.44654614 41.78515625 43.80078125 C41.34452718 54.58180094 36.30770085 63.13859433 28.5 70.375 C18.8634092 78.9697972 8.12672034 81.10992124 -4.49755859 80.52294922 C-16.17393206 79.66024716 -25.0558641 74.61787354 -33.00390625 66.2109375 C-40.1728498 57.41353941 -42.43765032 45.44585373 -41.5 34.375 C-40.10444516 23.74466251 -35.34445317 15.64920037 -27.5 8.375 C-19.20707624 2.44938249 -10.10295242 -0.14833046 0 0 Z " fill="#F8F8F8" transform="translate(1105.5,407.625)"/>
<path d="M0 0 C10.3021875 -0.1546875 10.3021875 -0.1546875 20.8125 -0.3125 C22.9572583 -0.35802002 25.1020166 -0.40354004 27.31176758 -0.45043945 C37.16351834 -0.57221516 45.4716008 -0.59481756 54 5 C55.1286145 5.68437134 55.1286145 5.68437134 56.2800293 6.38256836 C62.87495064 10.54188857 67.3869088 17.26109652 69.87890625 24.58203125 C71.1798719 30.35904655 71.27477419 36.10656737 71 42 C70.99355469 42.73992187 70.98710938 43.47984375 70.98046875 44.2421875 C70.55179646 53.16492185 65.60611849 61.43963992 59.12109375 67.43359375 C49.87339383 74.26292647 41.08335139 76.16827826 29.8828125 76.09765625 C29.12218506 76.09664917 28.36155762 76.09564209 27.57788086 76.09460449 C24.76023838 76.08940693 21.94261753 76.07544587 19.125 76.0625 C12.81375 76.041875 6.5025 76.02125 0 76 C0 50.92 0 25.84 0 0 Z " fill="#FAFAFA" transform="translate(824,410)"/>
<path d="M0 0 C6.27 0 12.54 0 19 0 C21.79526182 8.88449957 24.32441397 17.78829858 26.625 26.8125 C26.9240625 27.97458984 27.223125 29.13667969 27.53125 30.33398438 C29.04302068 36.21718045 30.53529299 42.10491684 32 48 C33.99670962 44.40090811 35.13962172 40.59475315 36.3125 36.671875 C36.52688721 35.9640387 36.74127441 35.25620239 36.9621582 34.5269165 C37.41431424 33.0313203 37.86471632 31.53519285 38.31347656 30.03857422 C38.99384485 27.77051863 39.6800399 25.50429096 40.3671875 23.23828125 C40.80764009 21.77875093 41.24775496 20.31911865 41.6875 18.859375 C41.88964111 18.19137878 42.09178223 17.52338257 42.30004883 16.83514404 C43.30617777 13.47185555 44.24008414 10.10469778 45.08203125 6.69628906 C46 3 46 3 47 0 C52.28 0 57.56 0 63 0 C67.01785714 12.72321429 67.01785714 12.72321429 68 17.5625 C68.93090905 22.06189375 70.42237803 26.30797216 71.9140625 30.6484375 C73.87222841 36.69198551 75.42013964 42.84862882 77 49 C79.17799507 44.19442373 80.20878517 39.18144452 81.375 34.0625 C84.06207778 22.53054073 87.13754122 11.20113048 91 0 C96.94 0 102.88 0 109 0 C106.85619373 8.7283541 104.64919389 17.39833512 102.1328125 26.02734375 C101.23521739 29.13471702 100.38935906 32.25405699 99.5546875 35.37890625 C94.9058913 52.76917494 94.9058913 52.76917494 91.9453125 60.39453125 C89.97518673 65.82458864 88.54210389 71.43741098 87 77 C81.06 77 75.12 77 69 77 C66.5725082 69.9395513 64.48991021 62.8199592 62.5 55.625 C62.05720703 54.03558594 62.05720703 54.03558594 61.60546875 52.4140625 C61.01900193 50.30588221 60.43561688 48.19684194 59.85546875 46.08691406 C59.28641474 44.03351255 58.70571802 41.98330113 58.11328125 39.93652344 C57.83871094 38.97520508 57.56414062 38.01388672 57.28125 37.0234375 C57.03439453 36.17442871 56.78753906 35.32541992 56.53320312 34.45068359 C55.97709417 31.89472128 55.90448371 29.60747837 56 27 C55.34 27 54.68 27 54 27 C53.896875 28.27875 53.79375 29.5575 53.6875 30.875 C52.92184468 37.755114 50.6465506 44.09876929 48.4375 50.625 C47.32559267 53.92060162 46.41224383 57.2197716 45.60546875 60.60546875 C44.21442087 66.10683876 42.57244812 71.54884651 41 77 C35.06 77 29.12 77 23 77 C19.67399044 67.41326657 16.79655448 57.80677757 14.16821289 48.0065918 C11.68747741 38.77189536 8.91390017 29.66332051 5.859375 20.6015625 C4.64697168 16.931287 3.47597654 13.24854038 2.3125 9.5625 C2.08570557 8.8511792 1.85891113 8.1398584 1.62524414 7.40698242 C0 2.23223996 0 2.23223996 0 0 Z " fill="#F8F8F8" transform="translate(1152,409)"/>
<path d="M0 0 C2.2199707 1.12329102 2.2199707 1.12329102 4.42578125 2.50390625 C5.22177734 2.99697266 6.01777344 3.49003906 6.83789062 3.99804688 C7.65451172 4.51431641 8.47113281 5.03058594 9.3125 5.5625 C10.14845703 6.08263672 10.98441406 6.60277344 11.84570312 7.13867188 C13.90144205 8.41910355 15.95257223 9.7063358 18 11 C14.2373135 15.51734961 9.23646621 17.75412403 4.125 20.4375 C-3.66857136 24.60501652 -11.35116866 28.90354331 -18.9375 33.4375 C-29.23448219 39.58009073 -39.64592439 45.50038868 -50.10009766 51.37060547 C-54.94611267 54.09348005 -59.78569629 56.82772026 -64.625 59.5625 C-65.57882568 60.10132813 -66.53265137 60.64015625 -67.51538086 61.1953125 C-72.98940145 64.29003338 -78.45609263 67.39713825 -83.91381836 70.52050781 C-85.62469189 71.49925732 -87.3364309 72.47649564 -89.04907227 73.45214844 C-93.81091043 76.16596679 -98.55514932 78.90680299 -103.28515625 81.67578125 C-105.37751966 82.8881667 -107.46996577 84.10040942 -109.5625 85.3125 C-110.54476563 85.89451172 -111.52703125 86.47652344 -112.5390625 87.07617188 C-113.45558594 87.60404297 -114.37210937 88.13191406 -115.31640625 88.67578125 C-116.12537354 89.14927002 -116.93434082 89.62275879 -117.76782227 90.1105957 C-120 91 -120 91 -124 90 C-124 82.41 -124 74.82 -124 67 C-108.39089542 58.06513324 -92.74754507 49.19344054 -77.08398438 40.35449219 C-64.24826574 33.11018821 -51.43196683 25.83348328 -38.64111328 18.51025391 C-35.88611251 16.93487632 -33.12887041 15.36348148 -30.37109375 13.79296875 C-29.44055176 13.2626001 -28.51000977 12.73223145 -27.55126953 12.18579102 C-25.79361629 11.18412608 -24.03551694 10.18324331 -22.27685547 9.18334961 C-21.06666748 8.49317749 -21.06666748 8.49317749 -19.83203125 7.7890625 C-19.04135254 7.34079102 -18.25067383 6.89251953 -17.43603516 6.43066406 C-15.71430416 5.41950515 -14.01784949 4.36471366 -12.34130859 3.28027344 C-11.03347412 2.44157715 -11.03347412 2.44157715 -9.69921875 1.5859375 C-8.91764404 1.06821777 -8.13606934 0.55049805 -7.33081055 0.01708984 C-4.36860805 -1.27551889 -3.04156635 -1.00219163 0 0 Z " fill="#F9F9F9" transform="translate(441,388)"/>
<path d="M0 0 C3.41022254 1.45371666 6.56846793 3.20443885 9.75 5.1015625 C10.71776367 5.66713867 10.71776367 5.66713867 11.70507812 6.24414062 C13.28628152 7.16943743 14.8624146 8.10338931 16.4375 9.0390625 C16.4375 11.3490625 16.4375 13.6590625 16.4375 16.0390625 C15.54933594 16.53792969 14.66117188 17.03679688 13.74609375 17.55078125 C-12.99122839 32.57532517 -39.69862783 47.65130761 -66.16088867 63.15625 C-72.89438263 67.09193262 -79.67592485 70.92809399 -86.51074219 74.68481445 C-91.80510981 77.59769845 -97.00986242 80.63183889 -102.1796875 83.76171875 C-104.47202914 84.99056419 -105.998286 85.70986893 -108.5625 86.0390625 C-110.85253906 85.14282227 -110.85253906 85.14282227 -113.328125 83.73046875 C-114.21757812 83.23095703 -115.10703125 82.73144531 -116.0234375 82.21679688 C-116.94382812 81.68376953 -117.86421875 81.15074219 -118.8125 80.6015625 C-120.21628906 79.80782227 -120.21628906 79.80782227 -121.6484375 78.99804688 C-123.95956962 77.68919144 -126.26363158 76.36930303 -128.5625 75.0390625 C-127.30046699 71.25296348 -126.18056097 70.95555495 -122.76171875 69.02734375 C-121.73643066 68.44283447 -120.71114258 67.8583252 -119.65478516 67.25610352 C-118.53120605 66.62760498 -117.40762695 65.99910645 -116.25 65.3515625 C-115.07289892 64.68440439 -113.89631248 64.01633755 -112.72021484 63.34741211 C-110.24976114 61.94388139 -107.77660509 60.54529275 -105.30126953 59.15039062 C-100.56944113 56.48186929 -95.85674734 53.78033729 -91.14282227 51.08032227 C-87.64634194 49.07799251 -84.14789783 47.07914597 -80.6484375 45.08203125 C-80.06536331 44.74924667 -79.48228912 44.4164621 -78.88154602 44.07359314 C-75.32200128 42.04231734 -71.76162657 40.01250151 -68.20091248 37.98327637 C-56.43895065 31.2794312 -44.69105428 24.55364107 -33 17.7265625 C-32.02603271 17.15977783 -31.05206543 16.59299316 -30.04858398 16.0090332 C-25.35069006 13.27141157 -20.6721763 10.5078784 -16.0234375 7.6875 C-15.15275635 7.16583252 -14.2820752 6.64416504 -13.38500977 6.10668945 C-11.76103851 5.13287535 -10.14378616 4.14772931 -8.53491211 3.14916992 C-3.3339688 0.0508227 -3.3339688 0.0508227 0 0 Z " fill="#4991B9" transform="translate(428.5625,513.9609375)"/>
<path d="M0 0 C18.48 0 36.96 0 56 0 C56 4.95 56 9.9 56 15 C43.46 15 30.92 15 18 15 C18 20.28 18 25.56 18 31 C29.55 31 41.1 31 53 31 C53 35.95 53 40.9 53 46 C41.45 46 29.9 46 18 46 C18 51.61 18 57.22 18 63 C30.54 63 43.08 63 56 63 C56 67.95 56 72.9 56 78 C37.52 78 19.04 78 0 78 C0 52.26 0 26.52 0 0 Z " fill="#F7F7F7" transform="translate(687,409)"/>
<path d="M0 0 C18.48 0 36.96 0 56 0 C56 4.95 56 9.9 56 15 C43.46 15 30.92 15 18 15 C18 20.94 18 26.88 18 33 C29.22 33 40.44 33 52 33 C52 37.62 52 42.24 52 47 C40.78 47 29.56 47 18 47 C18 57.23 18 67.46 18 78 C12.06 78 6.12 78 0 78 C0 52.26 0 26.52 0 0 Z " fill="#F7F6F7" transform="translate(937,409)"/>
<path d="M0 0 C18.48 0 36.96 0 56 0 C56 4.95 56 9.9 56 15 C43.13 15 30.26 15 17 15 C17 20.94 17 26.88 17 33 C28.55 33 40.1 33 52 33 C52 37.62 52 42.24 52 47 C40.45 47 28.9 47 17 47 C17 56.9 17 66.8 17 77 C11.39 77 5.78 77 0 77 C0 51.59 0 26.18 0 0 Z " fill="#FAF9F9" transform="translate(583,409)"/>
<path d="M0 0 C6.40634879 3.82752195 10.72835313 9.31600265 12.625 16.5 C13.68451575 26.31900061 12.2116518 33.85882535 6.375 41.8125 C1.03456426 47.0315622 -3.43336233 48.74153372 -10.9375 49 C-17.82953226 48.7456228 -21.42279203 47.40371174 -26.27734375 42.62890625 C-33.2326151 35.10469655 -33.92129041 28.57756242 -33.6875 18.62109375 C-33.34033679 12.17398367 -31.26851615 7.99171326 -26.5 3.6875 C-25.46875 2.965625 -24.4375 2.24375 -23.375 1.5 C-22.529375 0.901875 -21.68375 0.30375 -20.8125 -0.3125 C-14.2583382 -2.57666498 -6.44516359 -2.83234728 0 0 Z " fill="#464C57" transform="translate(1116.375,424.5)"/>
<path d="M0 0 C5.61 0 11.22 0 17 0 C17 20.46 17 40.92 17 62 C28.88 62 40.76 62 53 62 C53 66.62 53 71.24 53 76 C35.51 76 18.02 76 0 76 C0 50.92 0 25.84 0 0 Z " fill="#FCFCFB" transform="translate(1006,410)"/>
<path d="M0 0 C5.61 0 11.22 0 17 0 C17 20.46 17 40.92 17 62 C28.88 62 40.76 62 53 62 C53 66.62 53 71.24 53 76 C35.51 76 18.02 76 0 76 C0 50.92 0 25.84 0 0 Z " fill="#FCFBFB" transform="translate(759,410)"/>
<path d="M0 0 C2.2199707 1.03149414 2.2199707 1.03149414 4.42578125 2.28515625 C5.22177734 2.73310547 6.01777344 3.18105469 6.83789062 3.64257812 C7.65451172 4.11115234 8.47113281 4.57972656 9.3125 5.0625 C10.14845703 5.53494141 10.98441406 6.00738281 11.84570312 6.49414062 C13.90069265 7.65667756 15.95187737 8.82542091 18 10 C18 10.66 18 11.32 18 12 C2.79749854 20.48417068 -12.42568045 28.92277598 -27.76171875 37.1640625 C-30.93358077 38.8708074 -34.08397771 40.60400115 -37.20703125 42.3984375 C-37.8098291 42.74003906 -38.41262695 43.08164062 -39.03369141 43.43359375 C-40.5322483 44.28662525 -42.02249765 45.15421025 -43.51171875 46.0234375 C-46.65793218 47.25821514 -47.81515398 47.1240633 -51 46 C-53.6881743 44.67215505 -56.24790404 43.17602837 -58.8125 41.625 C-59.50537109 41.22539062 -60.19824219 40.82578125 -60.91210938 40.4140625 C-62.66421109 39.36452768 -64.34015226 38.19007951 -66 37 C-66 36.01 -66 35.02 -66 34 C-65.41323486 33.6690332 -64.82646973 33.33806641 -64.22192383 32.99707031 C-53.51220692 26.95446526 -42.80721697 20.90361519 -32.125 14.8125 C-31.26946533 14.326604 -30.41393066 13.84070801 -29.5324707 13.34008789 C-25.34363227 10.95178179 -21.19114728 8.52189324 -17.0859375 5.9921875 C-16.3110498 5.51934326 -15.53616211 5.04649902 -14.73779297 4.55932617 C-13.28887761 3.6711028 -11.84719809 2.77092037 -10.41455078 1.85668945 C-6.40059521 -0.59549996 -4.48949773 -1.31023968 0 0 Z " fill="#AAE0EF" transform="translate(478,409)"/>
<path d="M0 0 C23.39678284 0 23.39678284 0 30.6328125 6.45703125 C36.00622291 12.27566709 36.50832763 19.11366633 36.37890625 26.671875 C35.64868554 33.08577237 32.92976476 38.58479644 28.125 42.9375 C18.00411415 49.61728466 13.58728448 48 0 48 C0 32.16 0 16.32 0 0 Z " fill="#484D58" transform="translate(841,424)"/>
<path d="M0 0 C4.62 0 9.24 0 14 0 C14.391875 1.4025 14.78375 2.805 15.1875 4.25 C16.74346287 9.4938941 18.80230386 14.4347111 21.01171875 19.43359375 C22 22 22 22 22 25 C22.66 25 23.32 25 24 25 C24.13212891 24.27006836 24.26425781 23.54013672 24.40039062 22.78808594 C24.95585493 20.2052674 25.68064123 17.86563034 26.59375 15.390625 C26.90183594 14.55402344 27.20992187 13.71742188 27.52734375 12.85546875 C27.84832031 11.99566406 28.16929688 11.13585937 28.5 10.25 C28.82097656 9.37472656 29.14195313 8.49945312 29.47265625 7.59765625 C31.86872691 1.13127309 31.86872691 1.13127309 33 0 C37.29 0 41.58 0 46 0 C46 13.86 46 27.72 46 42 C43.03 42 40.06 42 37 42 C36.67 33.09 36.34 24.18 36 15 C33.82628397 21.63919514 33.82628397 21.63919514 31.6628418 28.28173828 C30.08137923 33.06894288 28.42159393 37.5740714 26 42 C24.02 42 22.04 42 20 42 C17.19142838 35.53917518 14.57730431 29.14104975 12.67578125 22.3515625 C11.86838947 19.5420258 10.92441213 16.7732364 10 14 C9.67 23.24 9.34 32.48 9 42 C6.03 42 3.06 42 0 42 C0 28.14 0 14.28 0 0 Z " fill="#F6F6F6" transform="translate(1024,516)"/>
<path d="M0 0 C5.61 0 11.22 0 17 0 C17 25.08 17 50.16 17 76 C11.39 76 5.78 76 0 76 C0 50.92 0 25.84 0 0 Z " fill="#FCFCFC" transform="translate(652,410)"/>
<path d="M0 0 C3.27914116 1.59395956 6.43707706 3.35780866 9.6015625 5.16796875 C11.27943848 6.12703125 11.27943848 6.12703125 12.99121094 7.10546875 C14.20250511 7.79942479 15.41376742 8.49343646 16.625 9.1875 C17.86749023 9.89847733 19.11000354 10.60941432 20.35253906 11.3203125 C32.92036727 18.5144567 45.46340575 25.75159206 58 33 C58 33.99 58 34.98 58 36 C55.16350792 37.71860957 52.3035821 39.39378346 49.4375 41.0625 C48.63763672 41.54783203 47.83777344 42.03316406 47.01367188 42.53320312 C43.28939527 44.67656232 40.79901881 45.97890379 36.44921875 46.09375 C32.06908926 44.70480747 28.33246537 42.74857797 24.375 40.4375 C23.59318359 39.99148438 22.81136719 39.54546875 22.00585938 39.0859375 C3.41456484 28.41456484 3.41456484 28.41456484 0 25 C-0.22705078 22.47802734 -0.22705078 22.47802734 -0.1953125 19.3359375 C-0.18886719 18.21445312 -0.18242187 17.09296875 -0.17578125 15.9375 C-0.15902344 14.761875 -0.14226562 13.58625 -0.125 12.375 C-0.11597656 11.19164062 -0.10695313 10.00828125 -0.09765625 8.7890625 C-0.07402812 5.85917477 -0.04108514 2.9296866 0 0 Z " fill="#A8DFEF" transform="translate(279,514)"/>
<path d="M0 0 C2.77597342 1.18202739 5.18288603 2.72609069 7.69140625 4.3984375 C6.48759177 6.89205321 5.23711903 9.07986833 3.69140625 11.3984375 C1.44658109 10.89958746 -0.47072215 10.32187686 -2.55859375 9.3359375 C-6.28003362 8.06726482 -9.38602863 8.26546919 -13.30859375 8.3984375 C-13.63859375 10.0484375 -13.96859375 11.6984375 -14.30859375 13.3984375 C-11.18522085 15.4806861 -9.12425599 15.99760406 -5.49609375 16.7734375 C0.85704977 18.29450451 4.96134046 19.80333881 8.69140625 25.3984375 C9.36722119 29.13320426 9.49927583 32.81608139 7.74609375 36.25 C5.13232926 39.58707038 2.66414924 41.16627938 -1.30859375 42.3984375 C-8.92547464 43.24115624 -16.22680446 43.84219333 -22.80859375 39.3984375 C-24.00497744 38.43418796 -25.18526099 37.44688141 -26.30859375 36.3984375 C-24.9492229 33.5378484 -23.66338906 31.53916051 -21.30859375 29.3984375 C-18.81497804 30.60225198 -16.62716292 31.85272472 -14.30859375 33.3984375 C-11.63235541 33.67805195 -11.63235541 33.67805195 -8.74609375 33.5859375 C-7.77542969 33.57949219 -6.80476562 33.57304688 -5.8046875 33.56640625 C-3.30969391 33.55988421 -3.30969391 33.55988421 -1.30859375 32.3984375 C-1.54000449 30.43370364 -1.54000449 30.43370364 -2.30859375 28.3984375 C-5.72987456 26.87108 -9.07092726 25.75352258 -12.6640625 24.72265625 C-17.68104503 23.21840186 -21.34477336 21.98757875 -24.30859375 17.3984375 C-25.12485508 13.55202618 -25.21810431 10.23297895 -24.30859375 6.3984375 C-18.45031239 -1.41766328 -9.08928401 -2.36844287 0 0 Z " fill="#F5F5F5" transform="translate(728.30859375,515.6015625)"/>
<path d="M0 0 C2.39502121 1.20946863 4.70794127 2.47021252 6.98828125 3.8828125 C5.91427017 6.79798542 5.21017949 8.66091426 2.98828125 10.8828125 C0.65361921 10.56079015 -1.18263109 9.80428521 -3.32421875 8.8203125 C-6.65057782 7.65995469 -9.51443665 7.74566418 -13.01171875 7.8828125 C-13.67171875 9.8628125 -14.33171875 11.8428125 -15.01171875 13.8828125 C-14.22667969 14.06457031 -13.44164062 14.24632812 -12.6328125 14.43359375 C4.46270164 18.52393149 4.46270164 18.52393149 7.98828125 23.8828125 C8.69600666 28.16937665 8.46048916 31.7395723 6.80078125 35.7578125 C4.27509031 38.71896739 1.41984282 40.16703171 -2.01171875 41.8828125 C-4.42515753 42.0329307 -6.84378305 42.1043662 -9.26171875 42.1328125 C-10.56625 42.15859375 -11.87078125 42.184375 -13.21484375 42.2109375 C-18.45265389 41.75828724 -21.70772049 39.75214467 -26.01171875 36.8828125 C-25.51340151 33.19526493 -24.91104232 31.27790588 -22.01171875 28.8828125 C-19.51810304 30.08662698 -17.33028792 31.33709972 -15.01171875 32.8828125 C-12.33548041 33.16242695 -12.33548041 33.16242695 -9.44921875 33.0703125 C-8.47855469 33.06386719 -7.50789062 33.05742188 -6.5078125 33.05078125 C-4.01281891 33.04425921 -4.01281891 33.04425921 -2.01171875 31.8828125 C-1.35958583 29.85817995 -1.35958583 29.85817995 -1.01171875 27.8828125 C-4.62467849 26.32493078 -8.10385551 25.37699745 -11.94921875 24.5703125 C-17.27491335 23.28480001 -20.25350943 21.84416827 -24.01171875 17.8828125 C-25.60843064 14.68938871 -25.38590038 11.35735619 -25.01171875 7.8828125 C-23.36196321 4.17086253 -21.44651236 2.02955851 -18.01171875 -0.1171875 C-12.18328344 -2.05999927 -5.77627314 -2.14269017 0 0 Z " fill="#F3F3F4" transform="translate(857.01171875,516.1171875)"/>
<path d="M0 0 C2.24280131 0.92941686 4.22633193 1.77310899 6.19140625 3.19921875 C6.68640625 4.68421875 6.68640625 4.68421875 7.19140625 6.19921875 C5.25390625 8.88671875 5.25390625 8.88671875 3.19140625 11.19921875 C-2.55859375 9.32421875 -2.55859375 9.32421875 -4.80859375 8.19921875 C-6.72359678 8.04023021 -6.72359678 8.04023021 -8.80859375 8.07421875 C-9.50984375 8.07164062 -10.21109375 8.0690625 -10.93359375 8.06640625 C-12.9001315 8.08544639 -12.9001315 8.08544639 -14.80859375 9.19921875 C-14.47859375 10.84921875 -14.14859375 12.49921875 -13.80859375 14.19921875 C-12.63941406 14.50214844 -11.47023438 14.80507813 -10.265625 15.1171875 C-8.71720728 15.53948324 -7.16904319 15.96270971 -5.62109375 16.38671875 C-4.85216797 16.58330078 -4.08324219 16.77988281 -3.29101562 16.98242188 C1.73471702 18.3844503 4.93640642 19.8890618 8.19140625 24.19921875 C9.27284934 28.21328103 9.11427271 32.35725263 7.234375 36.109375 C4.66264899 39.43220829 2.12040602 40.97516319 -1.80859375 42.19921875 C-9.42547464 43.04193749 -16.72680446 43.64297458 -23.30859375 39.19921875 C-24.50497744 38.23496921 -25.68526099 37.24766266 -26.80859375 36.19921875 C-25.4492229 33.33862965 -24.16338906 31.33994176 -21.80859375 29.19921875 C-19.55701708 30.28331122 -17.54730852 31.38282458 -15.49609375 32.82421875 C-11.41515286 34.912142 -7.77297883 34.81955088 -3.43359375 33.44921875 C-1.36966019 31.86157755 -1.32413254 30.68593527 -0.80859375 28.19921875 C-1.49824219 28.0290625 -2.18789062 27.85890625 -2.8984375 27.68359375 C-19.42090726 23.42265505 -19.42090726 23.42265505 -23.80859375 18.19921875 C-25.29588212 13.73735363 -25.51989907 9.89844813 -23.68359375 5.51171875 C-17.51821796 -2.09224472 -9.09258754 -2.59246237 0 0 Z " fill="#F5F5F5" transform="translate(1128.80859375,515.80078125)"/>
<path d="M0 0 C9.9 0 19.8 0 30 0 C30 2.64 30 5.28 30 8 C23.07 8 16.14 8 9 8 C9 10.97 9 13.94 9 17 C15.27 17 21.54 17 28 17 C28 19.31 28 21.62 28 24 C21.73 24 15.46 24 9 24 C9 27.3 9 30.6 9 34 C15.93 34 22.86 34 30 34 C30 36.64 30 39.28 30 42 C20.1 42 10.2 42 0 42 C0 28.14 0 14.28 0 0 Z " fill="#F8F7F8" transform="translate(960,516)"/>
<path d="M0 0 C4.42125387 0.36843782 6.97224181 1.78080286 10 5 C10.61495706 7.93916597 10.4734545 10.76367505 10.3125 13.75 C10.28994141 14.54277344 10.26738281 15.33554687 10.24414062 16.15234375 C10.18540471 18.1023762 10.09572654 20.05143312 10 22 C7.75474054 23.17666004 5.50455858 24.3414074 3.25 25.5 C2.61578125 25.83386719 1.9815625 26.16773438 1.328125 26.51171875 C-2.12010993 28.27175533 -4.04840069 29 -8 29 C-10.19824219 27.99023438 -10.19824219 27.99023438 -12.546875 26.59375 C-13.39121094 26.09746094 -14.23554688 25.60117187 -15.10546875 25.08984375 C-15.97816406 24.56519531 -16.85085938 24.04054688 -17.75 23.5 C-18.63816406 22.97535156 -19.52632813 22.45070313 -20.44140625 21.91015625 C-22.6323236 20.61445244 -24.81814534 19.31088769 -27 18 C-25.67391006 14.02173018 -24.10764462 13.66273788 -20.46875 11.6796875 C-19.34855469 11.06222656 -18.22835938 10.44476563 -17.07421875 9.80859375 C-15.8830103 9.16369701 -14.69160153 8.51917015 -13.5 7.875 C-11.1754678 6.60449136 -8.8534927 5.32938228 -6.53125 4.0546875 C-5.49548828 3.49249512 -4.45972656 2.93030273 -3.39257812 2.35107422 C-1.1185794 1.20792148 -1.1185794 1.20792148 0 0 Z " fill="#4990B8" transform="translate(509,429)"/>
<path d="M0 0 C4.01857243 -1.1001415 7.02418677 -1.35686474 11 0 C15.34665694 4.54301226 18.14758307 10.45603998 21 16 C21.63808594 14.92878906 22.27617188 13.85757813 22.93359375 12.75390625 C23.76815188 11.35672466 24.60279151 9.95959176 25.4375 8.5625 C25.85837891 7.85544922 26.27925781 7.14839844 26.71289062 6.41992188 C29.88671875 1.11328125 29.88671875 1.11328125 31 0 C32.68608966 -0.07205511 34.37500659 -0.08386068 36.0625 -0.0625 C36.98160156 -0.05347656 37.90070312 -0.04445313 38.84765625 -0.03515625 C39.55792969 -0.02355469 40.26820313 -0.01195312 41 0 C38.97871718 4.2634184 36.90725806 8.26272712 34.23828125 12.15625 C27.40457463 22.21548453 24.28387835 29.77596991 25 42 C22.03 42 19.06 42 16 42 C16.10183594 41.05125 16.20367188 40.1025 16.30859375 39.125 C17.03376949 24.58513562 9.41510405 14.59642949 1.36108398 3.046875 C0 1 0 1 0 0 Z " fill="#F7F7F7" transform="translate(763,516)"/>
<path d="M0 0 C11.22 0 22.44 0 34 0 C34 2.64 34 5.28 34 8 C30.04 8 26.08 8 22 8 C22 19.22 22 30.44 22 42 C18.7 42 15.4 42 12 42 C12 30.78 12 19.56 12 8 C8.04 8 4.08 8 0 8 C0 5.36 0 2.72 0 0 Z " fill="#F1F1F2" transform="translate(894,516)"/>
<path d="M0 0 C5.07634826 1.7989503 9.63713611 4.49026455 14.3125 7.125 C15.14845703 7.59292969 15.98441406 8.06085937 16.84570312 8.54296875 C18.89866233 9.6926259 20.95002202 10.84503802 23 12 C23 12.99 23 13.98 23 15 C20.75820623 16.36965208 18.50827662 17.72052808 16.25 19.0625 C15.29867188 19.64741211 15.29867188 19.64741211 14.328125 20.24414062 C9.504414 23.08309554 9.504414 23.08309554 6.95483398 22.66308594 C4.06135737 21.68160942 2.31781308 21.08643071 0 19 C-0.63559327 15.75792707 -0.468825 12.6001351 -0.3125 9.3125 C-0.28994141 8.41982422 -0.26738281 7.52714844 -0.24414062 6.60742188 C-0.18520574 4.40325728 -0.10300818 2.20247328 0 0 Z " fill="#458FBB" transform="translate(279,557)"/>
<path d="M0 0 C31.68 0 63.36 0 96 0 C96 0.99 96 1.98 96 3 C64.32 3 32.64 3 0 3 C0 2.01 0 1.02 0 0 Z " fill="#DCDCDF" transform="translate(1160,533)"/>
<path d="M0 0 C0.33 0 0.66 0 1 0 C1 9.57 1 19.14 1 29 C0.67 29 0.34 29 0 29 C0 23.39 0 17.78 0 12 C-0.99 12.99 -1.98 13.98 -3 15 C-3.66 15 -4.32 15 -5 15 C-1.92482916 4.44191344 -1.92482916 4.44191344 0 0 Z " fill="#5E626B" transform="translate(1060,529)"/>
<path d="M0 0 C2.1875 0.3125 2.1875 0.3125 4 1 C3.34 2.32 2.68 3.64 2 5 C-0.475 4.01 -0.475 4.01 -3 3 C-1.75 1.4375 -1.75 1.4375 0 0 Z " fill="#A5D2E0" transform="translate(447,462)"/>
<path d="M0 0 C0.6875 1.8125 0.6875 1.8125 1 4 C-0.3125 5.75 -0.3125 5.75 -2 7 C-2.66 7 -3.32 7 -4 7 C-3.6875 4.625 -3.6875 4.625 -3 2 C-2.01 1.34 -1.02 0.68 0 0 Z " fill="#4F5661" transform="translate(1059,537)"/>
</svg>
